<svg width="64" height="19" viewBox="0 0 64 19" fill="none" xmlns="http://www.w3.org/2000/svg">
<path d="M0.721591 18V0.545454H7.40341C8.66477 0.545454 9.71307 0.744318 10.5483 1.14204C11.3892 1.53409 12.017 2.07102 12.4318 2.75284C12.8523 3.43466 13.0625 4.20739 13.0625 5.07102C13.0625 5.78125 12.9261 6.3892 12.6534 6.89489C12.3807 7.39489 12.0142 7.80114 11.554 8.11364C11.0938 8.42614 10.5795 8.65057 10.0114 8.78693V8.95739C10.6307 8.99148 11.2244 9.18182 11.7926 9.52841C12.3665 9.86932 12.8352 10.3523 13.1989 10.9773C13.5625 11.6023 13.7443 12.358 13.7443 13.2443C13.7443 14.1477 13.5256 14.9602 13.0881 15.6818C12.6506 16.3977 11.9915 16.9631 11.1108 17.3778C10.2301 17.7926 9.12216 18 7.78693 18H0.721591ZM3.88352 15.358H7.28409C8.43182 15.358 9.25852 15.1392 9.7642 14.7017C10.2756 14.2585 10.5312 13.6903 10.5312 12.9972C10.5312 12.4801 10.4034 12.0142 10.1477 11.5994C9.89205 11.179 9.52841 10.8494 9.05682 10.6108C8.58523 10.3665 8.02273 10.2443 7.36932 10.2443H3.88352V15.358ZM3.88352 7.96875H7.01136C7.55682 7.96875 8.0483 7.86932 8.4858 7.67045C8.9233 7.46591 9.26705 7.17898 9.51705 6.80966C9.77273 6.43466 9.90057 5.99148 9.90057 5.48011C9.90057 4.80398 9.66193 4.24716 9.18466 3.80966C8.71307 3.37216 8.01136 3.15341 7.07955 3.15341H3.88352V7.96875ZM16.495 18V0.545454H19.657V15.3494H27.3445V18H16.495ZM45.0057 9.27273C45.0057 11.1534 44.6534 12.7642 43.9489 14.1051C43.25 15.4403 42.2955 16.4631 41.0852 17.1733C39.8807 17.8835 38.5142 18.2386 36.9858 18.2386C35.4574 18.2386 34.0881 17.8835 32.8778 17.1733C31.6733 16.4574 30.7188 15.4318 30.0142 14.0966C29.3153 12.7557 28.9659 11.1477 28.9659 9.27273C28.9659 7.39205 29.3153 5.78409 30.0142 4.44886C30.7188 3.10795 31.6733 2.08239 32.8778 1.37216C34.0881 0.661931 35.4574 0.306818 36.9858 0.306818C38.5142 0.306818 39.8807 0.661931 41.0852 1.37216C42.2955 2.08239 43.25 3.10795 43.9489 4.44886C44.6534 5.78409 45.0057 7.39205 45.0057 9.27273ZM41.8267 9.27273C41.8267 7.94886 41.6193 6.83239 41.2045 5.92329C40.7955 5.00852 40.2273 4.31818 39.5 3.85227C38.7727 3.38068 37.9347 3.14489 36.9858 3.14489C36.0369 3.14489 35.1989 3.38068 34.4716 3.85227C33.7443 4.31818 33.1733 5.00852 32.7585 5.92329C32.3494 6.83239 32.1449 7.94886 32.1449 9.27273C32.1449 10.5966 32.3494 11.7159 32.7585 12.6307C33.1733 13.5398 33.7443 14.2301 34.4716 14.7017C35.1989 15.1676 36.0369 15.4006 36.9858 15.4006C37.9347 15.4006 38.7727 15.1676 39.5 14.7017C40.2273 14.2301 40.7955 13.5398 41.2045 12.6307C41.6193 11.7159 41.8267 10.5966 41.8267 9.27273ZM59.6882 6.11932C59.5462 5.65909 59.3501 5.24716 59.1001 4.88352C58.8558 4.5142 58.5604 4.19886 58.2138 3.9375C57.8729 3.67614 57.4808 3.48011 57.0376 3.34943C56.5945 3.21307 56.1115 3.14489 55.5888 3.14489C54.6513 3.14489 53.8161 3.38068 53.0831 3.85227C52.3501 4.32386 51.7734 5.01704 51.353 5.93182C50.9382 6.84091 50.7308 7.94886 50.7308 9.25568C50.7308 10.5739 50.9382 11.6903 51.353 12.6051C51.7678 13.5199 52.3445 14.2159 53.0831 14.6932C53.8217 15.1648 54.6797 15.4006 55.657 15.4006C56.5433 15.4006 57.3104 15.2301 57.9581 14.8892C58.6115 14.5483 59.1143 14.0653 59.4666 13.4403C59.8189 12.8097 59.995 12.071 59.995 11.2244L60.7109 11.3352H55.9723V8.86364H63.0547V10.9602C63.0547 12.4545 62.7365 13.7472 62.1001 14.8381C61.4638 15.929 60.5888 16.7699 59.4751 17.3608C58.3615 17.946 57.0831 18.2386 55.6399 18.2386C54.032 18.2386 52.62 17.8778 51.4041 17.1562C50.1939 16.429 49.2479 15.3977 48.5661 14.0625C47.8899 12.7216 47.5518 11.1307 47.5518 9.28977C47.5518 7.88068 47.7507 6.62216 48.1484 5.5142C48.5518 4.40625 49.1143 3.46591 49.8359 2.69318C50.5575 1.91477 51.4041 1.32386 52.3757 0.920454C53.3473 0.511363 54.4041 0.306818 55.5462 0.306818C56.5121 0.306818 57.4126 0.448863 58.2479 0.732954C59.0831 1.01136 59.8246 1.40909 60.4723 1.92614C61.1257 2.44318 61.6626 3.05682 62.0831 3.76704C62.5036 4.47727 62.7791 5.26136 62.9098 6.11932H59.6882Z" fill="white"/>
</svg>
